<?xml version="1.0" encoding="UTF-8"?> <svg xmlns="http://www.w3.org/2000/svg" id="Layer_1" data-name="Layer 1" viewBox="0 0 160 80"><defs><style>.cls-1{fill:#ffcb00;}.cls-2{fill:#1d1d1b;}</style></defs><path class="cls-1" d="M104.66,14.8a6.56,6.56,0,0,0-.76,0A9.09,9.09,0,0,0,95,8.94a15.34,15.34,0,0,0-1.79.1C91.11,3.85,86.75.63,80.54.63c-12.31,0-27.13,12.73-33.1,28.42S46.61,57.5,58.91,57.5c6.19,0,13-3.23,19.06-8.44a11.6,11.6,0,0,0,1.7.13c4.36,0,9.18-2.26,13.42-5.91.23,0,.49,0,.74,0,6.16,0,13.6-6.37,16.59-14.25S110.85,14.8,104.66,14.8ZM66,51.63c-9.52,0-13.49-10.75-8.88-24s16.08-24,25.6-24a9.79,9.79,0,0,1,9.14,5.64c-8,1.77-16.6,10-20.34,19.76C68,38.3,70,46.08,75.69,48.45A18.66,18.66,0,0,1,66,51.63Zm18.07-7.2c-6.74,0-9.55-7.61-6.29-17s11.37-17,18.13-17A7,7,0,0,1,102.63,15c-5.67,1.18-11.87,7-14.55,14-2.36,6.21-1.26,11.48,2.33,13.45A12.85,12.85,0,0,1,84.08,44.43ZM109.62,28c-2.32,6.63-8.06,12-12.84,12S90,34.63,92.35,28s8.06-12,12.82-12S111.92,21.36,109.62,28Z"></path><path class="cls-2" d="M47.75,67.05a11.23,11.23,0,0,0-5.65-1.62c-3.75,0-6.53,2.53-6.53,6s2.69,5.92,6.64,5.92a11,11,0,0,0,5.7-1.76V78A12.45,12.45,0,0,1,42,79.37c-6.15,0-8.83-4.51-8.83-7.77,0-4.76,3.77-8.24,9-8.24a14.93,14.93,0,0,1,5.62,1.29Z"></path><path class="cls-2" d="M60.93,73.92c0,3.25-2.39,5.45-5.83,5.45a5.35,5.35,0,1,1,0-10.68C58.48,68.69,60.93,70.88,60.93,73.92Zm-9.35,0a3.58,3.58,0,1,0,7.16,0,3.44,3.44,0,0,0-3.67-3.43A3.34,3.34,0,0,0,51.58,73.92Z"></path><path class="cls-2" d="M70.76,71.58a5.11,5.11,0,0,0-3-1,3.22,3.22,0,0,0-3.29,3.48c0,2.11,1.45,3.4,3.65,3.4A7,7,0,0,0,71,76.76v2a9.43,9.43,0,0,1-3.21.59c-3.22,0-5.48-2.12-5.48-5.14,0-3.38,2.06-5.54,5.34-5.54a7.22,7.22,0,0,1,3.11.72Z"></path><path class="cls-2" d="M75,70.25h0a4.25,4.25,0,0,1,3.22-1.56c2.11,0,3.67,1.38,3.67,4.18v6.3H79.79V72.82c0-1.51-.83-2.51-2.11-2.51A3.6,3.6,0,0,0,75,71.8v7.37H72.84V63.57H75Z"></path><path class="cls-2" d="M86.62,79.17H84.5V63.57h2.12Z"></path><path class="cls-2" d="M98.25,78.16A7.26,7.26,0,0,1,94,79.37a5.18,5.18,0,0,1-5.25-5.46,4.89,4.89,0,0,1,5.05-5.22c2.87,0,4.68,1.85,4.68,5.64H90.86a3.34,3.34,0,0,0,3.63,3.1,7.15,7.15,0,0,0,3.76-1.24ZM96.34,73a2.42,2.42,0,0,0-2.53-2.54A2.75,2.75,0,0,0,90.9,73Z"></path><path class="cls-2" d="M108.65,78.56a3.51,3.51,0,0,1-2.06.81c-.94,0-1.45-.33-1.64-1.05a4.84,4.84,0,0,1-2.9,1.05,2.55,2.55,0,0,1-2.65-2.52c0-2,1.95-2.64,3.68-3.24L105,73v-.54c0-1.3-.62-1.82-1.93-1.82a4.49,4.49,0,0,0-3.4,1.7V70.09a4.49,4.49,0,0,1,3.57-1.4c2.17,0,3.91,1,3.91,3.39v5.28c0,.39.15.52.41.52a2.57,2.57,0,0,0,1.13-.55ZM105,74.09c-1.81.59-3.39,1.2-3.39,2.4a1.44,1.44,0,0,0,1.52,1.44,2.76,2.76,0,0,0,1.87-.85Z"></path><path class="cls-2" d="M112.36,68.89v2.36h0c1.08-1.81,2.11-2.56,3.13-2.56a3.8,3.8,0,0,1,2.57,1.2L117,71.64a3.57,3.57,0,0,0-2-1,2.9,2.9,0,0,0-2.63,3.16v5.37h-2.13V68.89Z"></path><path class="cls-2" d="M123.58,75.15a3.27,3.27,0,1,1,3.27-3.27A3.26,3.26,0,0,1,123.58,75.15Zm0-6a2.73,2.73,0,1,0,2.73,2.72A2.71,2.71,0,0,0,123.58,69.16Zm-1.43,1h1.56c.86,0,1.16.54,1.16.92a1,1,0,0,1-1,1v0c.3.1.52.41.81.88l.43.68h-.69l-.31-.55c-.45-.79-.62-.94-1-.94h-.34v1.49h-.57Zm1.39,1.53c.43,0,.72-.17.72-.53s-.25-.52-.63-.52h-.91v1Z"></path></svg> 